<svg width="192" height="192" viewBox="0 0 192 192" fill="none" xmlns="http://www.w3.org/2000/svg" role="img" aria-label="StudyGlance logo">
  <defs>
    <linearGradient id="bg" x1="0" y1="0" x2="1" y2="1">
      <stop offset="0%" stop-color="#2563EB"/>
      <stop offset="100%" stop-color="#06B6D4"/>
    </linearGradient>
    <filter id="soft" x="-20%" y="-20%" width="140%" height="140%" color-interpolation-filters="sRGB">
      <feGaussianBlur stdDeviation="6"/>
    </filter>
  </defs>
  <rect width="192" height="192" rx="28" fill="url(#bg)"/>
  <!-- Open book -->
  <g transform="translate(28,52)">
    <rect x="8" y="18" width="60" height="64" rx="8" fill="#ffffff" fill-opacity="0.95"/>
    <rect x="88" y="18" width="60" height="64" rx="8" fill="#ffffff" fill-opacity="0.95"/>
    <rect x="74" y="18" width="4" height="64" rx="2" fill="#ffffff" fill-opacity="0.9"/>
    <path d="M16 30h44M16 46h44M16 62h36" stroke="#0f172a" stroke-opacity="0.18" stroke-width="3" stroke-linecap="round"/>
    <path d="M96 30h44M96 46h44M96 62h36" stroke="#0f172a" stroke-opacity="0.18" stroke-width="3" stroke-linecap="round"/>
  </g>
  <!-- Eye/Glance over book -->
  <g transform="translate(0,0)">
    <ellipse cx="96" cy="68" rx="34" ry="18" fill="#ffffff" fill-opacity="0.9"/>
    <circle cx="96" cy="68" r="7" fill="#06B6D4"/>
    <circle cx="96" cy="68" r="3" fill="#0f172a"/>
  </g>
  <!-- Soft highlight -->
  <ellipse cx="140" cy="32" rx="40" ry="14" fill="#ffffff" fill-opacity="0.25" filter="url(#soft)"/>
</svg>
